<?xml version="1.0" standalone="no"?>
<!DOCTYPE svg PUBLIC "-//W3C//DTD SVG 20010904//EN"
 "http://www.w3.org/TR/2001/REC-SVG-20010904/DTD/svg10.dtd">
<svg version="1.0" xmlns="http://www.w3.org/2000/svg"
 width="700.000000pt" height="700.000000pt" viewBox="0 0 700.000000 700.000000"
 preserveAspectRatio="xMidYMid meet">
<metadata>
Created by potrace 1.11, written by Peter Selinger 2001-2013
</metadata>
<g transform="translate(0.000000,700.000000) scale(0.100000,-0.100000)"
fill="#000000" stroke="none">
<path d="M3378 5715 c-2 -2 -34 -5 -73 -9 -104 -9 -142 -16 -230 -43 -371
-116 -595 -425 -631 -873 -7 -89 -7 -2513 1 -2584 24 -242 87 -426 198 -576
188 -253 517 -372 934 -339 299 25 524 134 674 329 19 24 39 51 44 61 73 121
121 256 150 424 14 85 18 263 18 935 l0 735 -490 1 -491 1 1 -306 2 -306 155
-2 c85 0 161 -2 168 -2 10 -1 12 -99 11 -473 0 -417 -3 -481 -18 -538 -24 -90
-43 -122 -101 -172 -67 -58 -137 -78 -252 -74 -74 3 -97 8 -150 34 -100 49
-159 146 -174 282 -12 113 -8 2527 5 2594 27 145 112 246 229 274 15 4 70 6
122 6 120 -1 181 -24 245 -96 77 -85 88 -138 92 -423 2 -132 4 -256 6 -275 l2
-35 318 -1 c315 -1 317 -1 318 20 4 90 0 447 -5 511 -26 292 -127 521 -298
680 -170 157 -379 231 -673 239 -58 2 -106 2 -107 1z"/>
<path d="M10 5652 c-7 -3 -10 -730 -10 -2155 l0 -2152 327 2 c181 0 334 1 340
2 10 1 13 196 12 917 0 504 2 918 5 921 7 7 270 6 328 -1 183 -23 267 -108
314 -321 7 -32 12 -305 17 -935 3 -362 5 -390 26 -475 13 -49 27 -94 31 -100
8 -10 675 -14 684 -4 2 2 -6 36 -19 74 -13 39 -26 86 -29 105 -11 59 -17 314
-21 830 -2 272 -6 510 -9 528 -26 153 -37 198 -67 280 -42 114 -73 165 -138
231 -54 54 -180 131 -215 131 -33 0 -14 20 54 56 204 107 334 337 365 644 6
59 7 545 1 595 -61 530 -313 777 -837 821 -83 7 -1140 12 -1159 6z m1123 -637
c116 -42 188 -170 197 -345 3 -80 3 -394 0 -475 -6 -125 -53 -242 -120 -299
-83 -70 -151 -86 -362 -86 l-168 0 0 28 c-1 35 -1 1115 0 1164 l0 38 203 -4
c162 -2 212 -7 250 -21z"/>
<path d="M4900 3504 l0 -2152 23 -3 c36 -6 1136 -2 1202 4 180 18 266 42 411
114 92 46 113 60 193 136 134 127 226 327 260 567 9 65 8 743 -1 790 -3 14
-11 53 -17 87 -49 263 -187 454 -400 555 l-84 40 69 36 c150 78 272 241 328
437 38 135 41 175 41 485 -1 316 -11 393 -74 556 -84 216 -261 376 -491 443
-168 49 -249 54 -898 55 l-562 1 0 -2151z m1153 1512 c121 -45 191 -176 197
-371 6 -159 1 -365 -10 -436 -22 -141 -101 -242 -224 -284 -39 -14 -94 -19
-243 -23 l-193 -4 0 571 0 571 213 -4 c171 -2 221 -6 260 -20z m-8 -1750 c169
-49 248 -159 270 -376 7 -69 7 -574 0 -615 -3 -16 -8 -45 -11 -64 -9 -56 -49
-136 -85 -169 -19 -18 -59 -42 -89 -54 -50 -19 -77 -21 -302 -24 l-248 -3 0
663 0 662 203 -1 c159 -2 215 -6 262 -19z"/>
</g>
</svg>
