<?xml version="1.0" encoding="UTF-8" standalone="no"?>
<svg
   xmlns:dc="http://purl.org/dc/elements/1.1/"
   xmlns:cc="http://creativecommons.org/ns#"
   xmlns:rdf="http://www.w3.org/1999/02/22-rdf-syntax-ns#"
   xmlns:svg="http://www.w3.org/2000/svg"
   xmlns="http://www.w3.org/2000/svg"
   xmlns:sodipodi="http://sodipodi.sourceforge.net/DTD/sodipodi-0.dtd"
   xmlns:inkscape="http://www.inkscape.org/namespaces/inkscape"
   width="240.675mm"
   height="161.075mm"
   viewBox="0 0 240.675 161.075"
   version="1.1"
   id="svg8"
   inkscape:version="1.0.1 (3bc2e813f5, 2020-09-07)"
   sodipodi:docname="logo-rgb.svg">
  <style></style>
  <defs
     id="defs2" />
  <sodipodi:namedview
     id="base"
     pagecolor="#ffffff"
     bordercolor="#666666"
     borderopacity="1.0"
     inkscape:pageopacity="0.0"
     inkscape:pageshadow="2"
     inkscape:zoom="1"
     inkscape:cx="391.61663"
     inkscape:cy="379.38787"
     inkscape:document-units="mm"
     inkscape:current-layer="layer1"
     inkscape:document-rotation="0"
     showgrid="false"
     showguides="true"
     inkscape:guide-bbox="true"
     inkscape:window-width="1920"
     inkscape:window-height="1016"
     inkscape:window-x="0"
     inkscape:window-y="27"
     inkscape:window-maximized="1"
     inkscape:pagecheckerboard="true" />
  <metadata
     id="metadata5">
    <rdf:RDF>
      <cc:Work
         rdf:about="">
        <dc:format>image/svg+xml</dc:format>
        <dc:type
           rdf:resource="http://purl.org/dc/dcmitype/StillImage" />
        <dc:title></dc:title>
      </cc:Work>
    </rdf:RDF>
  </metadata>
  <g
     inkscape:label="Layer 1"
     inkscape:groupmode="layer"
     id="layer1"
     style="display:inline">
    <path
       id="path979"
       style="font-size:44.7437px;line-height:1.25;font-family:'Bebas Neue';-inkscape-font-specification:'Bebas Neue';letter-spacing:0px;word-spacing:0px;writing-mode:lr-tb;display:inline;fill:#ffffff;stroke-width:1.98175"
       d="m 149.32812,121.75781 c -9.0192,0 -15.89577,2.59326 -20.63085,7.7793 -4.73508,5.0733 -7.10352,12.28906 -7.10352,21.64648 0,6.87714 1.52243,13.0773 4.56641,18.60157 3.04398,5.41152 8.40008,11.49927 16.0664,18.26367 6.08796,5.29878 10.25887,9.8641 12.51367,13.69726 2.25481,3.72042 3.38282,8.06093 3.38282,13.02149 0,4.17138 -0.84601,7.21623 -2.53711,9.13281 -1.57836,1.80384 -3.9468,2.70508 -7.10352,2.70508 -6.42618,0 -9.63867,-3.83368 -9.63867,-11.5 v -8.11719 h -17.58789 v 6.76563 c 0,9.5829 2.31125,16.9663 6.93359,22.15234 4.62235,5.0733 11.44369,7.61133 20.46289,7.61133 9.13194,0 16.0657,-2.59326 20.80078,-7.7793 4.84783,-5.18604 7.27149,-12.62662 7.27149,-22.32226 0,-7.44085 -1.46524,-13.92496 -4.39649,-19.44922 -2.93124,-5.52426 -8.28734,-11.66724 -16.0664,-18.43164 -6.08796,-5.29878 -10.31606,-9.80888 -12.6836,-13.5293 -2.2548,-3.72042 -3.38085,-7.72369 -3.38085,-12.00781 0,-7.55359 3.10008,-11.33008 9.30078,-11.33008 3.04398,0 5.35523,0.95842 6.93359,2.875 1.57836,1.80384 2.36719,4.73628 2.36719,8.79492 v 6.08789 h 17.58789 v -4.9043 c 0,-9.5829 -2.31125,-16.91107 -6.9336,-21.98437 -4.50959,-5.18604 -11.21853,-7.7793 -20.125,-7.7793 z m 38.05079,1.69141 v 118.37695 h 18.60156 v -53.26953 h 19.95508 v 53.26953 h 18.60156 V 123.44922 h -18.60156 v 48.19531 h -19.95508 v -48.19531 z m 85.40039,0 L 253.5,241.82617 h 17.25 l 3.38086,-23.16797 h 21.13867 v -0.33984 l 3.38281,23.50781 h 18.60157 L 297.97656,123.44922 Z m 53.4375,0 v 118.37695 h 28.41015 c 9.24468,0 16.17844,-2.48084 20.80078,-7.4414 4.62235,-4.96056 6.9336,-12.23155 6.9336,-21.81446 v -59.86523 c 0,-9.5829 -2.31125,-16.85585 -6.9336,-21.81641 -4.62234,-4.96056 -11.5561,-7.43945 -20.80078,-7.43945 z m 68.6582,0 v 118.37695 h 50.73242 v -16.91211 h -32.13086 v -36.35742 h 25.53711 v -16.91211 h -25.53711 v -31.28515 h 32.13086 v -16.91016 z m 176.03125,0 12.00781,118.37695 h 24.68946 l 8.45507,-79.82031 h 0.33789 l 8.45704,79.82031 h 23.16796 l 12.00586,-118.37695 h -16.06445 l -8.28711,90.98047 h -0.33789 l -8.79492,-90.98047 H 606.25 l -8.79297,90.98047 h -0.33789 l -8.28711,-90.98047 z m 98.5918,0 v 118.37695 h 50.73242 v -16.91211 h -32.13086 v -36.35742 h 25.53516 v -16.91211 h -25.53516 v -31.28515 h 32.13086 v -16.91016 z m -324.67969,16.91016 h 9.4707 c 3.04398,-10e-6 5.35524,0.90123 6.9336,2.70507 1.6911,1.80385 2.53711,4.73628 2.53711,8.79493 v 61.55664 c 0,4.05864 -0.84601,6.98912 -2.53711,8.79296 -1.57836,1.80384 -3.88962,2.70508 -6.9336,2.70508 h -9.4707 z m -60.37109,3.7207 h 0.33789 l 8.28711,58.51172 h -16.74219 z m -0.1875,221.1914 c -8.90647,0 -15.72586,2.53803 -20.46094,7.61133 -4.62234,5.0733 -6.9336,12.23187 -6.9336,21.47657 v 63.58593 c 0,9.24468 2.31126,16.40328 6.9336,21.47657 4.73508,5.07331 11.55447,7.60937 20.46094,7.60937 8.90646,0 15.67062,-2.53609 20.29296,-7.60937 4.73508,-5.07332 7.10352,-12.23189 7.10352,-21.47657 v -16.74219 h -17.58789 v 18.09376 c 0,7.21537 -3.10008,10.82421 -9.30078,10.82421 -6.2007,0 -9.30078,-3.60884 -9.30078,-10.82421 v -66.1211 c 0,-7.3281 3.10008,-10.99219 9.30078,-10.99219 6.2007,0 9.30078,3.66409 9.30078,10.99219 v 13.69727 h 17.58789 v -12.51367 c 0,-9.2447 -2.36844,-16.40327 -7.10352,-21.47657 -4.62234,-5.0733 -11.3865,-7.61133 -20.29296,-7.61133 z m 267.02539,0 c -9.13195,0 -16.12288,2.59326 -20.97071,7.7793 -4.84782,5.18604 -7.27148,12.51422 -7.27148,21.98438 v 62.23242 c 0,9.47018 2.42366,16.79833 7.27148,21.98437 4.84783,5.18602 11.83876,7.7793 20.97071,7.7793 9.13194,0 16.12092,-2.59328 20.96875,-7.7793 4.84782,-5.18604 7.27148,-12.51419 7.27148,-21.98437 v -62.23242 c 0,-9.47016 -2.42366,-16.79834 -7.27148,-21.98438 -4.84783,-5.18604 -11.83681,-7.7793 -20.96875,-7.7793 z m -346.33789,1.69141 -19.27735,118.37695 h 17.24805 l 3.38281,-23.16796 h 21.13867 v -0.3379 l 3.38282,23.50586 h 18.60156 l -19.2793,-118.37695 z m 117.86914,0 v 118.37695 h 18.60351 v -37.71093 l 7.43946,-15.05079 15.72851,52.76172 h 19.44727 l -22.49219,-74.91406 22.1543,-43.46289 H 365.0957 l -23.67578,49.88867 v -49.88867 z m 268.54687,0 v 90.30469 c 0,9.58286 2.36845,16.96825 7.10352,22.1543 4.73509,5.07331 11.61164,7.60937 20.63086,7.60937 9.01918,0 15.89576,-2.53606 20.63086,-7.60937 4.73506,-5.18602 7.10351,-12.57141 7.10351,-22.1543 v -90.30469 h -17.92578 v 91.6582 c 0,4.05864 -0.846,6.98913 -2.53711,8.79297 -1.57836,1.80385 -3.88961,2.70703 -6.93359,2.70703 -3.04398,0 -5.41048,-0.90318 -7.10157,-2.70703 -1.57835,-1.80384 -2.36914,-4.73433 -2.36914,-8.79297 v -91.6582 z m 68.6582,0 v 118.37695 h 16.57422 v -86.41406 h 0.33789 l 22.32227,86.41406 h 19.10937 V 366.96289 h -16.57226 v 70.85742 h -0.33985 l -18.09374,-70.85742 z m 72.21094,0 v 118.37695 h 28.41016 c 9.2447,0 16.17844,-2.4789 20.80078,-7.43945 4.62234,-4.96055 6.93359,-12.23349 6.93359,-21.81641 v -59.86523 c 0,-9.58292 -2.31125,-16.8539 -6.93359,-21.81445 -4.62234,-4.96057 -11.55608,-7.44141 -20.80078,-7.44141 z m -180.94726,15.2207 c 6.42618,0 9.63867,3.88892 9.63867,11.66797 v 64.59961 c 0,7.77908 -3.21249,11.66992 -9.63867,11.66992 -6.42618,0 -9.64063,-3.89084 -9.64063,-11.66992 v -64.59961 c 0,-7.77905 3.21445,-11.66797 9.64063,-11.66797 z m 199.54882,1.69141 h 9.47071 c 3.04398,0 5.35521,0.90124 6.93359,2.70508 1.69109,1.80382 2.53516,4.73626 2.53516,8.79492 v 61.55469 c 0,4.05863 -0.84407,6.99108 -2.53516,8.79492 -1.57838,1.80384 -3.88961,2.70508 -6.93359,2.70508 h -9.47071 z m -534.21679,3.7207 h 0.33789 l 8.28515,58.51172 H 208.5 Z"
       transform="scale(0.26458333)"
       sodipodi:nodetypes="scscccscssccscscssccsscsccscscccccccccccccccccccccccccsssssscccccccccccccccccccccccccccccccccccccccccccccscsscscccccccscsscscsccssssssccscssssssssssssccccccccccccccccccccccccscscsccscscscccccccccccccccccsssssscssssssscscsscsccccccc" />
  </g>
  <g
     inkscape:label="Layer 1 copy 2"
     inkscape:groupmode="layer"
     id="g2477"
     style="display:inline"
     sodipodi:insensitive="true">
    <path
       id="path2475"
       style="font-size:44.7437px;line-height:1.25;font-family:'Bebas Neue';-inkscape-font-specification:'Bebas Neue';letter-spacing:0px;word-spacing:0px;writing-mode:lr-tb;display:inline;fill:#00ff00;stroke-width:1.98175"
       d="m 416.50391,365.27148 c -9.01919,0 -15.89577,2.59326 -20.63086,7.7793 -4.73507,5.07331 -7.10352,12.40148 -7.10352,21.98438 v 62.23242 c 0,9.58286 2.36845,16.96825 7.10352,22.1543 4.73509,5.07331 11.61167,7.60937 20.63086,7.60937 9.01921,0 15.89576,-2.53606 20.63086,-7.60937 4.73506,-5.18602 7.10351,-12.57141 7.10351,-22.1543 v -38.72461 h -26.88867 v 16.91015 h 9.30078 v 23.16797 c 0,7.6663 -3.21247,11.5 -9.63867,11.5 -6.42618,0 -9.63867,-3.8337 -9.63867,-11.5 v -64.76953 c 0,-7.77905 3.21246,-11.66797 9.63867,-11.66797 6.42618,0 9.63867,3.88892 9.63867,11.66797 v 11.33008 h 17.58789 v -10.14648 c 0,-9.5829 -2.36845,-16.91107 -7.10351,-21.98438 -4.7351,-5.18604 -11.61165,-7.7793 -20.63086,-7.7793 z"
       transform="scale(0.26458333)"
       sodipodi:nodetypes="scsscscsccccssssssccscs"
       sodipodi:insensitive="true" />
  </g>
  <g
     inkscape:label="Layer 1 copy 1"
     id="g2473"
     style="display:inline"
     inkscape:groupmode="layer"
     sodipodi:insensitive="true">
    <path
       id="path2471"
       style="font-size:44.7437px;line-height:1.25;font-family:'Bebas Neue';-inkscape-font-specification:'Bebas Neue';letter-spacing:0px;word-spacing:0px;writing-mode:lr-tb;display:inline;fill:#ff0000;stroke-width:1.98175"
       d="m 456.26172,123.44922 v 118.37695 h 18.60351 V 191.0918 h 6.42579 c 4.28414,0 7.2718,1.07278 8.96289,3.21484 1.80384,2.14206 2.70507,5.91856 2.70507,11.33008 v 21.64453 c 0,4.39686 0.11238,7.44171 0.3379,9.13281 0.22546,1.6911 0.67705,3.49553 1.35351,5.41211 h 18.93945 c -0.90189,-2.02932 -1.46589,-4.05857 -1.6914,-6.08789 -0.22551,-2.14206 -0.33789,-4.90491 -0.33789,-8.28711 v -20.80078 c 0,-6.98988 -0.9584,-12.57081 -2.875,-16.74219 -1.80385,-4.17138 -4.95917,-6.93227 -9.46875,-8.28515 v -0.33789 c 8.11726,-3.26946 12.17578,-11.04923 12.17578,-23.33789 v -7.27149 c 0,-9.24468 -2.19885,-16.06603 -6.5957,-20.46289 -4.39688,-4.5096 -11.38782,-6.76367 -20.97071,-6.76367 z m 18.60156,16.91016 h 8.45703 c 3.26947,-10e-6 5.63597,0.95841 7.10157,2.875 1.57838,1.91658 2.36718,5.01666 2.36718,9.30078 v 9.13281 c 0,4.5096 -0.9584,7.72209 -2.875,9.63867 -1.80384,1.91658 -4.56474,2.875 -8.28515,2.875 h -6.76563 z m -18.61914,226.60351 v 118.37695 h 18.60352 v -50.73242 h 6.42578 c 4.28412,0 7.27178,1.07083 8.96289,3.21289 1.80384,2.14206 2.70508,5.91855 2.70508,11.33008 v 21.64649 c 0,4.39687 0.11238,7.44172 0.33789,9.13281 0.22546,1.69111 0.67708,3.49361 1.35351,5.41015 h 18.93946 c -0.9019,-2.0293 -1.46395,-4.05858 -1.68946,-6.08789 -0.22551,-2.14208 -0.33984,-4.90295 -0.33984,-8.28515 v -20.80078 c 0,-6.98989 -0.95843,-12.5708 -2.875,-16.74219 -1.80384,-4.17137 -4.95914,-6.93422 -9.46875,-8.28711 v -0.33789 c 8.11729,-3.26944 12.17578,-11.04726 12.17578,-23.33594 v -7.27344 c 0,-9.24467 -2.19885,-16.06407 -6.5957,-20.46093 -4.39688,-4.50961 -11.38586,-6.76563 -20.96875,-6.76563 z m 18.60352,16.91211 h 8.45507 c 3.26945,0 5.63594,0.95843 7.10157,2.875 1.57835,1.91657 2.36718,5.01666 2.36718,9.30078 v 9.13086 c 0,4.50961 -0.95647,7.72405 -2.87304,9.64063 -1.80385,1.91659 -4.5667,2.875 -8.28711,2.875 h -6.76367 z"
       transform="scale(0.26458333)"
       sodipodi:nodetypes="ccccscssscccsscccsscsccscsscsccccccscssscccsscccsscsccscsscscc"
       sodipodi:insensitive="true" />
  </g>
  <g
     inkscape:label="Layer 1 copy"
     inkscape:groupmode="layer"
     id="g2469"
     style="display:inline"
     sodipodi:insensitive="true">
    <path
       id="path2467"
       style="font-size:44.7437px;line-height:1.25;font-family:'Bebas Neue';-inkscape-font-specification:'Bebas Neue';letter-spacing:0px;word-spacing:0px;writing-mode:lr-tb;display:inline;fill:#0000ff;stroke-width:1.98175"
       d="m 730.88477,123.44922 v 118.37695 h 29.25585 c 9.2447,0 16.23369,-2.36843 20.96876,-7.10351 4.84782,-4.84782 7.27148,-11.83681 7.27148,-20.96875 v -10.14649 c 0,-13.30332 -4.62056,-21.53468 -13.86524,-24.6914 v -0.3379 c 4.05864,-1.6911 7.04437,-4.45199 8.96094,-8.28515 2.02933,-3.83316 3.04492,-8.79485 3.04492,-14.88281 v -4.73438 c 0,-9.24468 -2.19885,-16.06603 -6.5957,-20.46289 -4.39687,-4.5096 -11.38586,-6.76367 -20.96875,-6.76367 z m 18.60156,16.91016 h 8.96289 c 3.26944,0 5.63789,0.95841 7.10351,2.875 1.57836,1.91658 2.36719,5.01666 2.36719,9.30078 v 6.5957 c 0,4.5096 -0.95842,7.72209 -2.875,9.63867 -1.80384,1.91658 -4.56669,2.875 -8.28711,2.875 h -7.27148 z m 0,48.19726 h 8.28711 c 4.28412,0 7.32701,1.07083 9.13086,3.21289 1.91657,2.02932 2.875,5.74864 2.875,11.16016 v 10.3164 c 0,4.28413 -0.78883,7.32898 -2.36719,9.13282 -1.57836,1.6911 -4.00202,2.53515 -7.27149,2.53515 H 749.48633 Z M 122.25391,366.96289 v 118.37695 h 29.25586 c 9.24468,0 16.23367,-2.36649 20.96875,-7.10156 4.84782,-4.84782 7.27148,-11.83878 7.27148,-20.9707 v -10.14649 c 0,-13.3033 -4.62251,-21.53271 -13.86719,-24.68945 v -0.33789 c 4.05864,-1.69109 7.04631,-4.45394 8.96289,-8.28711 2.02932,-3.83315 3.04492,-8.7929 3.04492,-14.88086 v -4.73633 c 0,-9.24467 -2.19884,-16.06407 -6.5957,-20.46093 -4.39686,-4.50961 -11.38585,-6.76563 -20.96875,-6.76563 z m 18.60156,16.91211 h 8.96289 c 3.26946,0 5.63594,0.95843 7.10156,2.875 1.57836,1.91657 2.36914,5.01666 2.36914,9.30078 v 6.5957 c 0,4.50959 -0.95842,7.72208 -2.875,9.63868 -1.80384,1.91657 -4.56669,2.875 -8.28711,2.875 h -7.27148 z m 0,48.19531 h 8.28711 c 4.28412,0 7.32702,1.07083 9.13086,3.21289 1.91658,2.02933 2.875,5.75061 2.875,11.16211 v 10.31641 c 0,4.28412 -0.78883,7.32699 -2.36719,9.13086 -1.57836,1.69106 -4.00202,2.53711 -7.27148,2.53711 h -10.6543 z"
       transform="scale(0.26458333)"
       sodipodi:nodetypes="ccsssscccsscsccscsscscccscsscsccccsssscccsscsccscsscscccscsscscc"
       sodipodi:insensitive="true" />
  </g>
</svg>
